<svg width="161" height="39" viewBox="0 0 161 39" fill="none" xmlns="http://www.w3.org/2000/svg">
<g clip-path="url(#clip0_551_327)">
<path d="M100.443 13.1263C102.25 15.0508 101.198 16.5926 100.017 18.4458C98.0061 21.6046 95.4657 24.5757 93.3994 27.7157C92.5921 30.9231 96.0619 31.1407 98.2431 30.1879C100.572 29.1675 102.198 26.564 102.579 24.0843C102.831 22.4636 102.179 19.2036 104.768 19.6238C106.049 19.8301 107.005 22.0135 107.297 23.1502C109.186 30.4955 102.613 38.2872 95.4657 38.9362C81.0051 40.2455 74.1951 21.8597 85.7969 13.3214C89.5075 10.5903 97.0099 9.4724 100.446 13.1301L100.443 13.1263ZM90.6961 15.3922C89.0446 15.651 87.1819 17.4592 86.6079 19.0086C85.5118 21.9722 87.0338 25.0409 89.1594 27.0667L95.1547 18.9973C96.8248 15.9849 92.9217 15.0433 90.6961 15.3922Z" fill="#221F20"/>
<path d="M123.039 12.4773C124.847 14.4018 123.795 15.9436 122.614 17.7968C120.603 20.9556 118.062 23.9267 115.996 27.0667C115.189 30.2741 118.659 30.4917 120.84 29.5389C123.169 28.5185 124.795 25.915 125.176 23.4353C125.428 21.8146 124.776 18.5546 127.365 18.9748C128.646 19.1811 129.601 21.3645 129.894 22.5012C131.782 29.8465 125.209 37.6382 118.062 38.2872C103.602 39.5965 96.7918 21.2107 108.394 12.6724C112.104 9.94132 119.607 8.8234 123.043 12.4811L123.039 12.4773ZM113.293 14.7432C111.641 15.002 109.779 16.8102 109.205 18.3596C108.108 21.3232 109.63 24.3919 111.756 26.4177L117.751 18.3483C119.421 15.3359 115.518 14.3943 113.293 14.7432Z" fill="#221F20"/>
<path d="M14.0718 0L11.8536 13.3776C18.5785 7.32657 29.4286 8.39948 30.3581 18.7722C31.3764 30.1316 22.5778 42.7214 10.2354 37.4807L7.78023 34.9372L6.85075 37.9083H0L6.66559 0H14.0718ZM17.5898 15.4409C9.2948 15.4559 6.25455 31.9435 13.6126 32.9977C22.7926 34.3107 26.5254 15.4259 17.5898 15.4409Z" fill="black"/>
<path d="M55.5466 37.9083H47.77C48.1366 33.868 46.8146 36.4453 45.0594 37.2331C38.0272 40.3843 28.1177 39.4802 30.1581 29.34C31.7726 21.3232 41.9969 22.8313 47.4775 21.0794C52.473 19.485 51.2473 13.9441 44.652 14.9007C41.2933 15.3884 40.4934 18.956 40.175 18.956H32.9539C34.3463 10.2227 46.1444 8.28694 53.2543 10.2902C56.8427 11.2994 58.3128 13.1826 58.1461 16.9303C57.8499 23.6566 54.2912 31.1707 55.5392 37.9121L55.5466 37.9083ZM49.2513 24.9021C46.3221 26.0575 39.6713 25.5999 38.0642 28.7211C35.1869 34.3032 43.6337 34.9897 46.8591 31.6022C48.5736 29.8015 48.6921 27.198 49.2513 24.9021Z" fill="black"/>
<path d="M157.752 37.9083H149.976L153.097 19.8826C153.419 14.4581 146.65 14.6869 144.054 18.0257C141.01 21.9384 141.04 32.9077 139.611 37.9083H131.834L136.648 10.4065H144.054L143.317 14.1242C145.628 11.7908 148.242 9.95257 151.649 9.67121C168.136 8.30944 157.834 29.0437 157.756 37.9121L157.752 37.9083Z" fill="black"/>
<path d="M64.8047 37.9083H57.3984L62.3976 10.4065H69.2484L68.6929 15.2421C70.9481 11.6445 75.3363 9.10476 79.6356 9.83629L79.917 10.504L78.521 16.9415C65.4675 14.7657 67.1191 29.4376 64.8047 37.9046V37.9083Z" fill="black"/>
</g>
<defs>
<clipPath id="clip0_551_327">
<rect width="161" height="39" fill="white"/>
</clipPath>
</defs>
</svg>
